<?xml version="1.0" encoding="UTF-8" standalone="no"?>
<!-- Created with Inkscape (http://www.inkscape.org/) -->

<svg
   xmlns:dc="http://purl.org/dc/elements/1.1/"
   xmlns:cc="http://creativecommons.org/ns#"
   xmlns:rdf="http://www.w3.org/1999/02/22-rdf-syntax-ns#"
   xmlns:svg="http://www.w3.org/2000/svg"
   xmlns="http://www.w3.org/2000/svg"
   xmlns:sodipodi="http://sodipodi.sourceforge.net/DTD/sodipodi-0.dtd"
   xmlns:inkscape="http://www.inkscape.org/namespaces/inkscape"
   width="50.799999mm"
   height="128.5mm"
   viewBox="0 0 50.8 128.5"
   version="1.1"
   id="svg8"
   inkscape:version="0.92.3 (2405546, 2018-03-11)"
   sodipodi:docname="MyLittleTags.svg">
  <defs
     id="defs2" />
  <sodipodi:namedview
     id="base"
     pagecolor="#ffffff"
     bordercolor="#666666"
     borderopacity="1.0"
     inkscape:pageopacity="0.0"
     inkscape:pageshadow="2"
     inkscape:zoom="1.4142136"
     inkscape:cx="-27.831011"
     inkscape:cy="243.03825"
     inkscape:document-units="mm"
     inkscape:current-layer="layer1"
     showgrid="false"
     inkscape:window-width="1920"
     inkscape:window-height="1029"
     inkscape:window-x="0"
     inkscape:window-y="0"
     inkscape:window-maximized="1"
     showguides="true"
     inkscape:guide-bbox="true">
    <sodipodi:guide
       position="26.005324,72.029136"
       orientation="1,0"
       id="guide4114"
       inkscape:locked="false" />
  </sodipodi:namedview>
  <metadata
     id="metadata5">
    <rdf:RDF>
      <cc:Work
         rdf:about="">
        <dc:format>image/svg+xml</dc:format>
        <dc:type
           rdf:resource="http://purl.org/dc/dcmitype/StillImage" />
        <dc:title />
      </cc:Work>
    </rdf:RDF>
  </metadata>
  <g
     inkscape:groupmode="layer"
     id="layer2"
     inkscape:label="Ebene 2"
     style="display:inline">
    <rect
       style="fill:#979797;stroke-width:0.31000927;fill-opacity:1"
       id="rect42"
       width="51.234756"
       height="128.86972"
       x="-0.18469247"
       y="-0.13951211" />
  </g>
  <g
     inkscape:label="Ebene 1"
     inkscape:groupmode="layer"
     id="layer1"
     transform="translate(0,-168.5)">
    <g
       aria-label="my"
       style="font-style:normal;font-weight:normal;font-size:5.3915658px;line-height:1.25;font-family:sans-serif;letter-spacing:0px;word-spacing:0px;fill:#000000;fill-opacity:1;stroke:none;stroke-width:0.13478914"
       id="text31"
       transform="translate(1.0583333,3.7041668)">
      <path
         d="m 5.7086427,174.80309 q 0.1184671,-0.18428 0.3132795,-0.18428 h 0.5001941 q 0.2290362,0 0.3922575,0.15532 0.1684864,0.15532 0.1684864,0.38699 v 2.02184 H 6.6326855 V 175.248 q 0,-0.10004 -0.057917,-0.16849 -0.055285,-0.0711 -0.1632212,-0.0711 H 6.0535134 q -0.13163,0 -0.171119,0.18165 -0.01053,0.0474 -0.01053,0.0869 v 1.906 H 5.4190567 v -1.97708 q 0,-0.13163 -0.1395278,-0.18428 -0.039489,-0.0132 -0.078978,-0.0132 H 4.8161912 q -0.1579561,0 -0.1579561,0.3712 v 1.80333 H 4.2054279 v -2.56415 h 0.4027878 v 0.15795 q 0.1158345,-0.15795 0.2816883,-0.15795 h 0.4738681 q 0.2211384,0 0.3448706,0.18428 z"
         style="font-style:normal;font-variant:normal;font-weight:normal;font-stretch:normal;font-family:Uroob;-inkscape-font-specification:Uroob;stroke-width:0.13478914"
         id="path254"
         inkscape:connector-curvature="0" />
      <path
         d="m 8.633462,177.03027 q -0.1526909,0.15269 -0.3080143,0.15269 H 7.9042316 q -0.2290362,0 -0.3948901,-0.15532 -0.1658538,-0.15533 -0.1658538,-0.387 v -2.02183 h 0.4501747 v 1.93496 q 0,0.10004 0.055285,0.17112 0.057917,0.0685 0.1658538,0.0685 h 0.3843597 q 0.1553234,0 0.2000776,-0.19218 0.01053,-0.0527 0.01053,-0.10004 v -1.85599 h 0.4501747 v 2.59575 q 0,0.0869 0.00263,0.20007 0.00263,0.11321 -0.00527,0.23431 -0.00527,0.1211 -0.028959,0.23693 -0.021061,0.11847 -0.07108,0.21061 -0.1158344,0.20534 -0.3580337,0.20534 H 7.99374 q -0.1869146,0 -0.3317076,-0.11583 -0.1526909,-0.12637 -0.1526909,-0.30802 v -0.14216 h 0.4001553 q 0,0.13953 0.1158344,0.20271 0.036856,0.0184 0.078978,0.0184 h 0.2606274 q 0.171119,0 0.2448318,-0.1132 0.023694,-0.0369 0.023694,-0.0895 z"
         style="font-style:normal;font-variant:normal;font-weight:normal;font-stretch:normal;font-family:Uroob;-inkscape-font-specification:Uroob;stroke-width:0.13478914"
         id="path256"
         inkscape:connector-curvature="0" />
    </g>
    <text
       xml:space="preserve"
       style="font-style:normal;font-variant:normal;font-weight:normal;font-stretch:normal;font-size:10.58333302px;line-height:1.25;font-family:Saab;-inkscape-font-specification:Saab;letter-spacing:0px;word-spacing:0px;fill:#000000;fill-opacity:1;stroke:none;stroke-width:0.26458332;"
       x="17.991667"
       y="179.92188"
       id="text862"><tspan
         sodipodi:role="line"
         id="tspan860"
         x="17.991667"
         y="189.7094"
         style="stroke-width:0.26458332;-inkscape-font-specification:Saab;font-family:Saab;font-weight:normal;font-style:normal;font-stretch:normal;font-variant:normal;" /></text>
    <text
       xml:space="preserve"
       style="font-style:normal;font-variant:normal;font-weight:normal;font-stretch:normal;font-size:10.58333302px;line-height:1.25;font-family:Sawasdee;-inkscape-font-specification:Sawasdee;letter-spacing:0px;word-spacing:0px;fill:#000000;fill-opacity:1;stroke:none;stroke-width:0.26458332;"
       x="19.049997"
       y="179.12813"
       id="text866"><tspan
         sodipodi:role="line"
         id="tspan864"
         x="19.049997"
         y="188.91565"
         style="stroke-width:0.26458332;-inkscape-font-specification:Sawasdee;font-family:Sawasdee;font-weight:normal;font-style:normal;font-stretch:normal;font-variant:normal;" /></text>
    <g
       aria-label="digitalhappens"
       style="font-style:normal;font-variant:normal;font-weight:normal;font-stretch:normal;font-size:4.38337231px;line-height:1.25;font-family:'Noto Color Emoji';-inkscape-font-specification:'Noto Color Emoji';letter-spacing:0px;word-spacing:0px;fill:#000000;fill-opacity:1;stroke:none;stroke-width:0.10958431"
       id="text3379"
       transform="translate(0.1883706,-1.920712)">
      <path
         d="m 14.089272,295.32648 h -0.261119 v -0.22688 q -0.256838,0.28253 -0.616411,0.28253 -0.376696,0 -0.59929,-0.30393 -0.218312,-0.30393 -0.218312,-0.82188 0,-0.51796 0.235435,-0.82188 0.235435,-0.30393 0.629254,-0.30393 0.321047,0 0.547921,0.18835 v -0.98883 h 0.282522 z m -0.282522,-1.64377 q -0.192629,-0.29536 -0.552202,-0.29536 -0.2654,0 -0.423783,0.23543 -0.154103,0.23544 -0.154103,0.63354 0,0.3981 0.141261,0.63353 0.145542,0.23544 0.389538,0.23544 0.380977,0 0.599289,-0.37242 z"
         style="fill:#000000;fill-opacity:0.62135925;stroke-width:0.10958431"
         id="path3415"
         inkscape:connector-curvature="0" />
      <path
         d="m 15.142309,295.32648 h -0.282522 v -2.14032 h 0.282522 z m -0.282522,-2.70108 q -0.05565,-0.0557 -0.05565,-0.13699 0,-0.0813 0.05565,-0.13698 0.05993,-0.0599 0.141261,-0.0599 0.08133,0 0.13698,0.0599 0.05993,0.0557 0.05993,0.13698 0,0.0813 -0.05993,0.13699 -0.05565,0.0556 -0.13698,0.0556 -0.08133,0 -0.141261,-0.0556 z"
         style="fill:#000000;fill-opacity:0.62135925;stroke-width:0.10958431"
         id="path3417"
         inkscape:connector-curvature="0" />
      <path
         d="m 17.43673,295.48914 q 0,0.36386 -0.209751,0.56505 -0.20547,0.20547 -0.573605,0.20547 -0.53508,0 -0.796199,-0.46659 l 0.231155,-0.14555 q 0.179786,0.34674 0.565044,0.34674 0.239715,0 0.368135,-0.1327 0.132699,-0.12842 0.132699,-0.37242 v -0.42378 q -0.248277,0.26112 -0.595008,0.26112 -0.372416,0 -0.595009,-0.28681 -0.222593,-0.29108 -0.222593,-0.77907 0,-0.51796 0.235435,-0.82188 0.235435,-0.30393 0.629254,-0.30393 0.33817,0 0.569324,0.25256 v -0.19691 h 0.261119 z m -0.282522,-1.71225 q -0.07277,-0.17979 -0.222593,-0.28253 -0.145542,-0.10273 -0.329609,-0.10273 -0.265399,0 -0.423783,0.23543 -0.154103,0.23544 -0.154103,0.63354 0,0.36813 0.141261,0.59073 0.145542,0.21831 0.389538,0.21831 0.380977,0 0.599289,-0.37242 z"
         style="fill:#000000;fill-opacity:0.62135925;stroke-width:0.10958431"
         id="path3419"
         inkscape:connector-curvature="0" />
      <path
         d="m 18.489767,295.32648 h -0.282522 v -2.14032 h 0.282522 z m -0.282522,-2.70108 q -0.05565,-0.0557 -0.05565,-0.13699 0,-0.0813 0.05565,-0.13698 0.05993,-0.0599 0.141261,-0.0599 0.08133,0 0.13698,0.0599 0.05993,0.0557 0.05993,0.13698 0,0.0813 -0.05993,0.13699 -0.05565,0.0556 -0.13698,0.0556 -0.08133,0 -0.141261,-0.0556 z"
         style="fill:#000000;fill-opacity:0.62135925;stroke-width:0.10958431"
         id="path3421"
         inkscape:connector-curvature="0" />
      <path
         d="m 19.024847,293.18616 h 0.291083 v -0.42807 h 0.282522 v 0.42807 h 0.547922 v 0.25684 h -0.547922 v 1.41261 q 0,0.12414 0.05993,0.19691 0.06421,0.0728 0.166945,0.0728 0.175506,0 0.286802,-0.13698 l 0.179787,0.1541 q -0.166945,0.23972 -0.466589,0.23972 -0.235435,0 -0.372416,-0.14127 -0.13698,-0.14126 -0.13698,-0.38525 V 293.443 h -0.291083 z"
         style="fill:#000000;fill-opacity:0.62135925;stroke-width:0.10958431"
         id="path3423"
         inkscape:connector-curvature="0" />
      <path
         d="m 21.858628,295.10388 q -0.243996,0.27825 -0.582166,0.27825 -0.351013,0 -0.560764,-0.18835 -0.20547,-0.19263 -0.20547,-0.5094 0,-0.32105 0.20547,-0.50939 0.209751,-0.18835 0.560764,-0.18835 0.316767,0 0.560763,0.18407 v -0.28681 q 0,-0.22687 -0.13698,-0.35957 -0.1327,-0.13698 -0.355293,-0.13698 -0.33389,0 -0.53936,0.28252 l -0.218313,-0.14126 q 0.26968,-0.3981 0.757673,-0.3981 0.355293,0 0.565044,0.20547 0.209751,0.20547 0.209751,0.54792 v 1.44258 h -0.261119 z m -0.586447,0.0214 q 0.351012,0 0.565044,-0.34245 v -0.31677 q -0.209751,-0.22259 -0.565044,-0.22259 -0.222593,0 -0.351012,0.11985 -0.128419,0.11986 -0.128419,0.32105 0,0.20119 0.128419,0.32105 0.128419,0.11986 0.351012,0.11986 z"
         style="fill:#000000;fill-opacity:0.62135925;stroke-width:0.10958431"
         id="path3425"
         inkscape:connector-curvature="0" />
      <path
         d="m 23.129978,295.32648 h -0.282522 v -2.99645 h 0.282522 z"
         style="fill:#000000;fill-opacity:0.62135925;stroke-width:0.10958431"
         id="path3427"
         inkscape:connector-curvature="0" />
      <path
         d="M 25.510012,295.32648 H 25.22749 v -1.47254 q 0,-0.46659 -0.440906,-0.46659 -0.393818,0 -0.60357,0.35101 v 1.58812 h -0.282522 v -2.99645 h 0.282522 v 1.06588 q 0.252558,-0.2654 0.60357,-0.2654 0.355293,0 0.53936,0.18835 0.184068,0.18407 0.184068,0.53508 z"
         style="font-style:normal;font-variant:normal;font-weight:normal;font-stretch:normal;font-family:'Lohit Telugu';-inkscape-font-specification:'Lohit Telugu';stroke-width:0.10958431"
         id="path3429"
         inkscape:connector-curvature="0" />
      <path
         d="m 27.457702,295.10388 q -0.243997,0.27825 -0.582167,0.27825 -0.351012,0 -0.560763,-0.18835 -0.205471,-0.19263 -0.205471,-0.5094 0,-0.32105 0.205471,-0.50939 0.209751,-0.18835 0.560763,-0.18835 0.316767,0 0.560763,0.18407 v -0.28681 q 0,-0.22687 -0.13698,-0.35957 -0.1327,-0.13698 -0.355293,-0.13698 -0.333889,0 -0.53936,0.28252 l -0.218313,-0.14126 q 0.269681,-0.3981 0.757673,-0.3981 0.355293,0 0.565044,0.20547 0.209752,0.20547 0.209752,0.54792 v 1.44258 h -0.261119 z m -0.586448,0.0214 q 0.351013,0 0.565044,-0.34245 v -0.31677 q -0.209751,-0.22259 -0.565044,-0.22259 -0.222593,0 -0.351012,0.11985 -0.128419,0.11986 -0.128419,0.32105 0,0.20119 0.128419,0.32105 0.128419,0.11986 0.351012,0.11986 z"
         style="font-style:normal;font-variant:normal;font-weight:normal;font-stretch:normal;font-family:'Lohit Telugu';-inkscape-font-specification:'Lohit Telugu';stroke-width:0.10958431"
         id="path3431"
         inkscape:connector-curvature="0" />
      <path
         d="m 28.446529,293.19044 h 0.261119 v 0.23115 q 0.252557,-0.2868 0.616412,-0.2868 0.376696,0 0.595008,0.30393 0.222593,0.30392 0.222593,0.82188 0,0.51796 -0.235435,0.82188 -0.235435,0.30393 -0.629253,0.30393 -0.321048,0 -0.547922,-0.18835 v 1.00595 h -0.282522 z m 0.282522,1.64376 q 0.192629,0.29537 0.552202,0.29537 0.2654,0 0.419503,-0.23544 0.158383,-0.23543 0.158383,-0.63353 0,-0.3981 -0.145541,-0.63354 -0.141261,-0.23543 -0.385258,-0.23543 -0.376696,0 -0.599289,0.37241 z"
         style="font-style:normal;font-variant:normal;font-weight:normal;font-stretch:normal;font-family:'Lohit Telugu';-inkscape-font-specification:'Lohit Telugu';stroke-width:0.10958431"
         id="path3433"
         inkscape:connector-curvature="0" />
      <path
         d="m 30.74095,293.19044 h 0.261119 v 0.23115 q 0.252558,-0.2868 0.616412,-0.2868 0.376696,0 0.595008,0.30393 0.222593,0.30392 0.222593,0.82188 0,0.51796 -0.235435,0.82188 -0.235435,0.30393 -0.629253,0.30393 -0.321048,0 -0.547922,-0.18835 v 1.00595 H 30.74095 Z m 0.282522,1.64376 q 0.192629,0.29537 0.552202,0.29537 0.2654,0 0.419503,-0.23544 0.158383,-0.23543 0.158383,-0.63353 0,-0.3981 -0.145541,-0.63354 -0.141261,-0.23543 -0.385258,-0.23543 -0.376696,0 -0.599289,0.37241 z"
         style="font-style:normal;font-variant:normal;font-weight:normal;font-stretch:normal;font-family:'Lohit Telugu';-inkscape-font-specification:'Lohit Telugu';stroke-width:0.10958431"
         id="path3435"
         inkscape:connector-curvature="0" />
      <path
         d="m 33.741677,295.38213 q -0.402379,0 -0.642095,-0.30393 -0.235435,-0.30821 -0.235435,-0.82188 0,-0.51368 0.235435,-0.8176 0.239716,-0.30821 0.642095,-0.30821 0.389538,0 0.616412,0.28252 0.231155,0.28252 0.231155,0.75339 v 0.16267 h -1.442575 q 0.01712,0.36813 0.175506,0.58217 0.158384,0.21403 0.419502,0.21403 0.346732,0 0.539361,-0.29109 l 0.226873,0.14983 q -0.27396,0.3981 -0.766234,0.3981 z m 0,-1.99478 q -0.239715,0 -0.398099,0.18407 -0.154103,0.17978 -0.188348,0.50083 h 1.147211 q -0.0214,-0.31677 -0.175506,-0.50083 -0.149823,-0.18407 -0.385258,-0.18407 z"
         style="font-style:normal;font-variant:normal;font-weight:normal;font-stretch:normal;font-family:'Lohit Telugu';-inkscape-font-specification:'Lohit Telugu';stroke-width:0.10958431"
         id="path3437"
         inkscape:connector-curvature="0" />
      <path
         d="m 36.819454,295.32648 h -0.282522 v -1.47254 q 0,-0.46659 -0.440905,-0.46659 -0.393819,0 -0.60357,0.35101 v 1.58812 h -0.282522 v -2.14032 h 0.261119 v 0.23543 q 0.256838,-0.29108 0.624973,-0.29108 0.355293,0 0.53936,0.18835 0.184067,0.18407 0.184067,0.53508 z"
         style="font-style:normal;font-variant:normal;font-weight:normal;font-stretch:normal;font-family:'Lohit Telugu';-inkscape-font-specification:'Lohit Telugu';stroke-width:0.10958431"
         id="path3439"
         inkscape:connector-curvature="0" />
      <path
         d="m 38.39901,295.03967 q 0.119858,-0.0856 0.119858,-0.22687 0,-0.14126 -0.115577,-0.23543 -0.111297,-0.0985 -0.273961,-0.15839 -0.162664,-0.0599 -0.329609,-0.1327 -0.162664,-0.0728 -0.278241,-0.20975 -0.111297,-0.13698 -0.111297,-0.33817 0,-0.27824 0.188348,-0.4409 0.188348,-0.16695 0.505115,-0.16695 0.428064,0 0.680622,0.35101 l -0.214032,0.14554 q -0.171226,-0.23971 -0.46659,-0.23971 -0.188348,0 -0.299644,0.0942 -0.111297,0.0942 -0.111297,0.25684 0,0.13698 0.111297,0.22687 0.115577,0.0899 0.278241,0.14983 0.166945,0.0556 0.329609,0.12842 0.162664,0.0685 0.273961,0.21403 0.115577,0.14126 0.115577,0.35529 0,0.26112 -0.196909,0.41522 -0.192629,0.15411 -0.517957,0.15411 -0.462309,0 -0.731989,-0.40667 l 0.214032,-0.14554 q 0.188348,0.29537 0.517957,0.29537 0.196909,0 0.312486,-0.0856 z"
         style="font-style:normal;font-variant:normal;font-weight:normal;font-stretch:normal;font-family:'Lohit Telugu';-inkscape-font-specification:'Lohit Telugu';stroke-width:0.10958431"
         id="path3441"
         inkscape:connector-curvature="0" />
    </g>
  </g>
</svg>
