<?xml version="1.0" encoding="UTF-8" standalone="no"?>
<!-- Created with Inkscape (http://www.inkscape.org/) -->

<svg
   xmlns:dc="http://purl.org/dc/elements/1.1/"
   xmlns:cc="http://creativecommons.org/ns#"
   xmlns:rdf="http://www.w3.org/1999/02/22-rdf-syntax-ns#"
   xmlns:svg="http://www.w3.org/2000/svg"
   xmlns="http://www.w3.org/2000/svg"
   xmlns:sodipodi="http://sodipodi.sourceforge.net/DTD/sodipodi-0.dtd"
   xmlns:inkscape="http://www.inkscape.org/namespaces/inkscape"
   width="50.799999mm"
   height="128.5mm"
   viewBox="0 0 50.8 128.5"
   version="1.1"
   id="svg8"
   inkscape:version="0.92.3 (2405546, 2018-03-11)"
   sodipodi:docname="MyLittleFavorites.svg">
  <defs
     id="defs2" />
  <sodipodi:namedview
     id="base"
     pagecolor="#ffffff"
     bordercolor="#666666"
     borderopacity="1.0"
     inkscape:pageopacity="0.0"
     inkscape:pageshadow="2"
     inkscape:zoom="2.0000001"
     inkscape:cx="-19.643186"
     inkscape:cy="310.8144"
     inkscape:document-units="mm"
     inkscape:current-layer="layer1"
     showgrid="false"
     inkscape:window-width="1920"
     inkscape:window-height="1029"
     inkscape:window-x="0"
     inkscape:window-y="0"
     inkscape:window-maximized="1" />
  <metadata
     id="metadata5">
    <rdf:RDF>
      <cc:Work
         rdf:about="">
        <dc:format>image/svg+xml</dc:format>
        <dc:type
           rdf:resource="http://purl.org/dc/dcmitype/StillImage" />
        <dc:title></dc:title>
      </cc:Work>
    </rdf:RDF>
  </metadata>
  <g
     inkscape:groupmode="layer"
     id="layer2"
     inkscape:label="Ebene 2"
     style="display:inline">
    <rect
       style="fill:#b3b3b3;stroke-width:0.31000927"
       id="rect42"
       width="51.234756"
       height="128.86972"
       x="-0.18469247"
       y="-0.13951211" />
  </g>
  <g
     inkscape:label="Ebene 1"
     inkscape:groupmode="layer"
     id="layer1"
     transform="translate(0,-168.5)">
    <g
       aria-label="my"
       style="font-style:normal;font-weight:normal;font-size:5.3915658px;line-height:1.25;font-family:sans-serif;letter-spacing:0px;word-spacing:0px;fill:#000000;fill-opacity:1;stroke:none;stroke-width:0.13478914"
       id="text31"
       transform="translate(1.0583333,3.7041668)">
      <path
         d="m 5.7086427,174.80309 q 0.1184671,-0.18428 0.3132795,-0.18428 h 0.5001941 q 0.2290362,0 0.3922575,0.15532 0.1684864,0.15532 0.1684864,0.38699 v 2.02184 H 6.6326855 V 175.248 q 0,-0.10004 -0.057917,-0.16849 -0.055285,-0.0711 -0.1632212,-0.0711 H 6.0535134 q -0.13163,0 -0.171119,0.18165 -0.01053,0.0474 -0.01053,0.0869 v 1.906 H 5.4190567 v -1.97708 q 0,-0.13163 -0.1395278,-0.18428 -0.039489,-0.0132 -0.078978,-0.0132 H 4.8161912 q -0.1579561,0 -0.1579561,0.3712 v 1.80333 H 4.2054279 v -2.56415 h 0.4027878 v 0.15795 q 0.1158345,-0.15795 0.2816883,-0.15795 h 0.4738681 q 0.2211384,0 0.3448706,0.18428 z"
         style="font-style:normal;font-variant:normal;font-weight:normal;font-stretch:normal;font-family:Uroob;-inkscape-font-specification:Uroob;stroke-width:0.13478914"
         id="path254"
         inkscape:connector-curvature="0" />
      <path
         d="m 8.633462,177.03027 q -0.1526909,0.15269 -0.3080143,0.15269 H 7.9042316 q -0.2290362,0 -0.3948901,-0.15532 -0.1658538,-0.15533 -0.1658538,-0.387 v -2.02183 h 0.4501747 v 1.93496 q 0,0.10004 0.055285,0.17112 0.057917,0.0685 0.1658538,0.0685 h 0.3843597 q 0.1553234,0 0.2000776,-0.19218 0.01053,-0.0527 0.01053,-0.10004 v -1.85599 h 0.4501747 v 2.59575 q 0,0.0869 0.00263,0.20007 0.00263,0.11321 -0.00527,0.23431 -0.00527,0.1211 -0.028959,0.23693 -0.021061,0.11847 -0.07108,0.21061 -0.1158344,0.20534 -0.3580337,0.20534 H 7.99374 q -0.1869146,0 -0.3317076,-0.11583 -0.1526909,-0.12637 -0.1526909,-0.30802 v -0.14216 h 0.4001553 q 0,0.13953 0.1158344,0.20271 0.036856,0.0184 0.078978,0.0184 h 0.2606274 q 0.171119,0 0.2448318,-0.1132 0.023694,-0.0369 0.023694,-0.0895 z"
         style="font-style:normal;font-variant:normal;font-weight:normal;font-stretch:normal;font-family:Uroob;-inkscape-font-specification:Uroob;stroke-width:0.13478914"
         id="path256"
         inkscape:connector-curvature="0" />
    </g>
  </g>
</svg>
